<mxfile host="app.diagrams.net" agent="Mozilla/5.0 (Windows NT 10.0; Win64; x64) AppleWebKit/537.36 (KHTML, like Gecko) Chrome/140.0.0.0 Safari/537.36 Edg/140.0.0.0" version="28.2.3">
  <diagram name="PÃ¡gina-1" id="gmmKJGZDJisU7WXLjgX8">
    <mxGraphModel dx="1689" dy="482" grid="1" gridSize="10" guides="1" tooltips="1" connect="1" arrows="1" fold="1" page="1" pageScale="1" pageWidth="827" pageHeight="1169" math="0" shadow="0">
      <root>
        <mxCell id="0" />
        <mxCell id="1" parent="0" />
        <mxCell id="Wz735K2adg3fwihp1_E6-96" style="edgeStyle=orthogonalEdgeStyle;rounded=0;orthogonalLoop=1;jettySize=auto;html=1;entryX=0.5;entryY=0;entryDx=0;entryDy=0;" edge="1" parent="1" source="2" target="7">
          <mxGeometry relative="1" as="geometry" />
        </mxCell>
        <mxCell id="2" value="Banco" style="swimlane;fontStyle=1;align=center;verticalAlign=top;childLayout=stackLayout;horizontal=1;startSize=40;horizontalStack=0;resizeParent=1;resizeParentMax=0;resizeLast=0;collapsible=0;marginBottom=0;fontSize=16;" parent="1" vertex="1">
          <mxGeometry x="-189" y="10" width="312" height="288" as="geometry" />
        </mxCell>
        <mxCell id="3" value="- cliente: Set&lt;Cliente&gt;" style="text;strokeColor=none;fillColor=none;align=left;verticalAlign=top;spacingLeft=4;spacingRight=4;overflow=hidden;rotatable=0;points=[[0,0.5],[1,0.5]];portConstraint=eastwest;" parent="2" vertex="1">
          <mxGeometry y="40" width="312" height="40" as="geometry" />
        </mxCell>
        <mxCell id="4" value="- solicitudesDeCredito: Set&lt;SolicitudDeCredito&gt;" style="text;strokeColor=none;fillColor=none;align=left;verticalAlign=top;spacingLeft=4;spacingRight=4;overflow=hidden;rotatable=0;points=[[0,0.5],[1,0.5]];portConstraint=eastwest;" parent="2" vertex="1">
          <mxGeometry y="80" width="312" height="40" as="geometry" />
        </mxCell>
        <mxCell id="5" style="line;strokeWidth=1;fillColor=none;align=left;verticalAlign=middle;spacingTop=-1;spacingLeft=3;spacingRight=3;rotatable=0;labelPosition=right;points=[];portConstraint=eastwest;strokeColor=inherit;" parent="2" vertex="1">
          <mxGeometry y="120" width="312" height="8" as="geometry" />
        </mxCell>
        <mxCell id="6" value="+ new()" style="text;strokeColor=none;fillColor=none;align=left;verticalAlign=top;spacingLeft=4;spacingRight=4;overflow=hidden;rotatable=0;points=[[0,0.5],[1,0.5]];portConstraint=eastwest;fontStyle=4" parent="2" vertex="1">
          <mxGeometry y="128" width="312" height="40" as="geometry" />
        </mxCell>
        <mxCell id="Wz735K2adg3fwihp1_E6-50" value="+ agregarCliente(Cliente): void" style="text;strokeColor=none;fillColor=none;align=left;verticalAlign=top;spacingLeft=4;spacingRight=4;overflow=hidden;rotatable=0;points=[[0,0.5],[1,0.5]];portConstraint=eastwest;" vertex="1" parent="2">
          <mxGeometry y="168" width="312" height="40" as="geometry" />
        </mxCell>
        <mxCell id="Wz735K2adg3fwihp1_E6-58" value="+ registrarCredito(SolicitudDeCredito): void" style="text;strokeColor=none;fillColor=none;align=left;verticalAlign=top;spacingLeft=4;spacingRight=4;overflow=hidden;rotatable=0;points=[[0,0.5],[1,0.5]];portConstraint=eastwest;" vertex="1" parent="2">
          <mxGeometry y="208" width="312" height="40" as="geometry" />
        </mxCell>
        <mxCell id="Wz735K2adg3fwihp1_E6-59" value="+ montoTotalCreditosAceptables(): Double" style="text;strokeColor=none;fillColor=none;align=left;verticalAlign=top;spacingLeft=4;spacingRight=4;overflow=hidden;rotatable=0;points=[[0,0.5],[1,0.5]];portConstraint=eastwest;" vertex="1" parent="2">
          <mxGeometry y="248" width="312" height="40" as="geometry" />
        </mxCell>
        <mxCell id="7" value="Cliente" style="swimlane;fontStyle=1;align=center;verticalAlign=top;childLayout=stackLayout;horizontal=1;startSize=40;horizontalStack=0;resizeParent=1;resizeParentMax=0;resizeLast=0;collapsible=0;marginBottom=0;fontSize=16;" parent="1" vertex="1">
          <mxGeometry x="-180" y="410" width="294" height="488" as="geometry" />
        </mxCell>
        <mxCell id="Wz735K2adg3fwihp1_E6-61" value="- nombre: String" style="text;strokeColor=none;fillColor=none;align=left;verticalAlign=top;spacingLeft=4;spacingRight=4;overflow=hidden;rotatable=0;points=[[0,0.5],[1,0.5]];portConstraint=eastwest;" vertex="1" parent="7">
          <mxGeometry y="40" width="294" height="40" as="geometry" />
        </mxCell>
        <mxCell id="Wz735K2adg3fwihp1_E6-63" value="- apellido: String" style="text;strokeColor=none;fillColor=none;align=left;verticalAlign=top;spacingLeft=4;spacingRight=4;overflow=hidden;rotatable=0;points=[[0,0.5],[1,0.5]];portConstraint=eastwest;" vertex="1" parent="7">
          <mxGeometry y="80" width="294" height="40" as="geometry" />
        </mxCell>
        <mxCell id="Wz735K2adg3fwihp1_E6-64" value="- direccion: String" style="text;strokeColor=none;fillColor=none;align=left;verticalAlign=top;spacingLeft=4;spacingRight=4;overflow=hidden;rotatable=0;points=[[0,0.5],[1,0.5]];portConstraint=eastwest;" vertex="1" parent="7">
          <mxGeometry y="120" width="294" height="40" as="geometry" />
        </mxCell>
        <mxCell id="Wz735K2adg3fwihp1_E6-65" value="- edad: int" style="text;strokeColor=none;fillColor=none;align=left;verticalAlign=top;spacingLeft=4;spacingRight=4;overflow=hidden;rotatable=0;points=[[0,0.5],[1,0.5]];portConstraint=eastwest;" vertex="1" parent="7">
          <mxGeometry y="160" width="294" height="40" as="geometry" />
        </mxCell>
        <mxCell id="Wz735K2adg3fwihp1_E6-66" value="- sueldoNetoMensual: Double" style="text;strokeColor=none;fillColor=none;align=left;verticalAlign=top;spacingLeft=4;spacingRight=4;overflow=hidden;rotatable=0;points=[[0,0.5],[1,0.5]];portConstraint=eastwest;" vertex="1" parent="7">
          <mxGeometry y="200" width="294" height="40" as="geometry" />
        </mxCell>
        <mxCell id="Wz735K2adg3fwihp1_E6-67" value="- propiedad: Propiedad" style="text;strokeColor=none;fillColor=none;align=left;verticalAlign=top;spacingLeft=4;spacingRight=4;overflow=hidden;rotatable=0;points=[[0,0.5],[1,0.5]];portConstraint=eastwest;" vertex="1" parent="7">
          <mxGeometry y="240" width="294" height="40" as="geometry" />
        </mxCell>
        <mxCell id="10" style="line;strokeWidth=1;fillColor=none;align=left;verticalAlign=middle;spacingTop=-1;spacingLeft=3;spacingRight=3;rotatable=0;labelPosition=right;points=[];portConstraint=eastwest;strokeColor=inherit;" parent="7" vertex="1">
          <mxGeometry y="280" width="294" height="8" as="geometry" />
        </mxCell>
        <mxCell id="11" value="+ new(String n, String a, String d, int e, Double s,&#xa;Propiedad p)" style="text;strokeColor=none;fillColor=none;align=left;verticalAlign=top;spacingLeft=4;spacingRight=4;overflow=hidden;rotatable=0;points=[[0,0.5],[1,0.5]];portConstraint=eastwest;fontStyle=6" parent="7" vertex="1">
          <mxGeometry y="288" width="294" height="40" as="geometry" />
        </mxCell>
        <mxCell id="Wz735K2adg3fwihp1_E6-68" value="+ getSueldoAnual(): Double" style="text;strokeColor=none;fillColor=none;align=left;verticalAlign=top;spacingLeft=4;spacingRight=4;overflow=hidden;rotatable=0;points=[[0,0.5],[1,0.5]];portConstraint=eastwest;" vertex="1" parent="7">
          <mxGeometry y="328" width="294" height="40" as="geometry" />
        </mxCell>
        <mxCell id="Wz735K2adg3fwihp1_E6-89" value="+ getSueldoMensual(): Double" style="text;strokeColor=none;fillColor=none;align=left;verticalAlign=top;spacingLeft=4;spacingRight=4;overflow=hidden;rotatable=0;points=[[0,0.5],[1,0.5]];portConstraint=eastwest;" vertex="1" parent="7">
          <mxGeometry y="368" width="294" height="40" as="geometry" />
        </mxCell>
        <mxCell id="Wz735K2adg3fwihp1_E6-90" value="+ getEdad(): int" style="text;strokeColor=none;fillColor=none;align=left;verticalAlign=top;spacingLeft=4;spacingRight=4;overflow=hidden;rotatable=0;points=[[0,0.5],[1,0.5]];portConstraint=eastwest;" vertex="1" parent="7">
          <mxGeometry y="408" width="294" height="40" as="geometry" />
        </mxCell>
        <mxCell id="Wz735K2adg3fwihp1_E6-91" value="+ getPropiedad(): Propiedad" style="text;strokeColor=none;fillColor=none;align=left;verticalAlign=top;spacingLeft=4;spacingRight=4;overflow=hidden;rotatable=0;points=[[0,0.5],[1,0.5]];portConstraint=eastwest;" vertex="1" parent="7">
          <mxGeometry y="448" width="294" height="40" as="geometry" />
        </mxCell>
        <mxCell id="12" value="&lt;&lt;interface&gt;&gt;&#xa;Solicitud" style="swimlane;fontStyle=1;align=center;verticalAlign=top;childLayout=stackLayout;horizontal=1;startSize=68.57142857142857;horizontalStack=0;resizeParent=1;resizeParentMax=0;resizeLast=0;collapsible=0;marginBottom=0;" parent="1" vertex="1">
          <mxGeometry x="380.5" y="53.43" width="201" height="122.57142857142857" as="geometry" />
        </mxCell>
        <mxCell id="14" style="line;strokeWidth=1;fillColor=none;align=left;verticalAlign=middle;spacingTop=-1;spacingLeft=3;spacingRight=3;rotatable=0;labelPosition=right;points=[];portConstraint=eastwest;strokeColor=inherit;" parent="12" vertex="1">
          <mxGeometry y="68.57142857142857" width="201" height="8" as="geometry" />
        </mxCell>
        <mxCell id="15" value="+ esAceptada(): boolean" style="text;strokeColor=none;fillColor=none;align=left;verticalAlign=top;spacingLeft=4;spacingRight=4;overflow=hidden;rotatable=0;points=[[0,0.5],[1,0.5]];portConstraint=eastwest;" parent="12" vertex="1">
          <mxGeometry y="76.57142857142857" width="201" height="46" as="geometry" />
        </mxCell>
        <mxCell id="Wz735K2adg3fwihp1_E6-42" style="edgeStyle=orthogonalEdgeStyle;rounded=0;orthogonalLoop=1;jettySize=auto;html=1;endArrow=block;endFill=0;endSize=10;dashed=1;" edge="1" parent="1" source="16">
          <mxGeometry relative="1" as="geometry">
            <mxPoint x="481" y="180" as="targetPoint" />
            <Array as="points">
              <mxPoint x="480" y="210" />
              <mxPoint x="481" y="210" />
            </Array>
          </mxGeometry>
        </mxCell>
        <mxCell id="16" value="&#xa;SolicitudDeCredito" style="swimlane;fontStyle=3;align=center;verticalAlign=top;childLayout=stackLayout;horizontal=1;startSize=61.33333333333333;horizontalStack=0;resizeParent=1;resizeParentMax=0;resizeLast=0;collapsible=0;marginBottom=0;fontSize=16;" parent="1" vertex="1">
          <mxGeometry x="361" y="250" width="269" height="361.65333333333325" as="geometry" />
        </mxCell>
        <mxCell id="Wz735K2adg3fwihp1_E6-43" value="- cliente: Cliente" style="text;strokeColor=none;fillColor=none;align=left;verticalAlign=middle;spacingLeft=4;spacingRight=4;overflow=hidden;rotatable=0;points=[[0,0.5],[1,0.5]];portConstraint=eastwest;" vertex="1" parent="16">
          <mxGeometry y="61.33333333333333" width="269" height="41" as="geometry" />
        </mxCell>
        <mxCell id="17" value="- monto: Double" style="text;strokeColor=none;fillColor=none;align=left;verticalAlign=middle;spacingLeft=4;spacingRight=4;overflow=hidden;rotatable=0;points=[[0,0.5],[1,0.5]];portConstraint=eastwest;fontSize=12;" parent="16" vertex="1">
          <mxGeometry y="102.33333333333333" width="269" height="41" as="geometry" />
        </mxCell>
        <mxCell id="18" value="- cuotas: int" style="text;strokeColor=none;fillColor=none;align=left;verticalAlign=middle;spacingLeft=4;spacingRight=4;overflow=hidden;rotatable=0;points=[[0,0.5],[1,0.5]];portConstraint=eastwest;" parent="16" vertex="1">
          <mxGeometry y="143.33333333333331" width="269" height="41" as="geometry" />
        </mxCell>
        <mxCell id="19" style="line;strokeWidth=1;fillColor=none;align=left;verticalAlign=middle;spacingTop=-1;spacingLeft=3;spacingRight=3;rotatable=0;labelPosition=right;points=[];portConstraint=eastwest;strokeColor=inherit;" parent="16" vertex="1">
          <mxGeometry y="184.33333333333331" width="269" height="8" as="geometry" />
        </mxCell>
        <mxCell id="Wz735K2adg3fwihp1_E6-46" value="+ new(Cliente cliente, Double monto, int cuotas)" style="text;strokeColor=none;fillColor=none;align=left;verticalAlign=top;spacingLeft=4;spacingRight=4;overflow=hidden;rotatable=0;points=[[0,0.5],[1,0.5]];portConstraint=eastwest;fontStyle=4" vertex="1" parent="16">
          <mxGeometry y="192.33333333333331" width="269" height="42.33" as="geometry" />
        </mxCell>
        <mxCell id="20" value="+ esAceptada(): boolean" style="text;strokeColor=none;fillColor=none;align=left;verticalAlign=top;spacingLeft=4;spacingRight=4;overflow=hidden;rotatable=0;points=[[0,0.5],[1,0.5]];portConstraint=eastwest;" parent="16" vertex="1">
          <mxGeometry y="234.6633333333333" width="269" height="42.33" as="geometry" />
        </mxCell>
        <mxCell id="Wz735K2adg3fwihp1_E6-45" value="+ getCliente(): Cliente" style="text;strokeColor=none;fillColor=none;align=left;verticalAlign=top;spacingLeft=4;spacingRight=4;overflow=hidden;rotatable=0;points=[[0,0.5],[1,0.5]];portConstraint=eastwest;" vertex="1" parent="16">
          <mxGeometry y="276.9933333333333" width="269" height="42.33" as="geometry" />
        </mxCell>
        <mxCell id="Wz735K2adg3fwihp1_E6-44" value="+ getMonto(): Double" style="text;strokeColor=none;fillColor=none;align=left;verticalAlign=top;spacingLeft=4;spacingRight=4;overflow=hidden;rotatable=0;points=[[0,0.5],[1,0.5]];portConstraint=eastwest;" vertex="1" parent="16">
          <mxGeometry y="319.32333333333327" width="269" height="42.33" as="geometry" />
        </mxCell>
        <mxCell id="Wz735K2adg3fwihp1_E6-48" style="edgeStyle=orthogonalEdgeStyle;rounded=0;orthogonalLoop=1;jettySize=auto;html=1;endArrow=block;endFill=0;endSize=10;" edge="1" parent="1">
          <mxGeometry relative="1" as="geometry">
            <mxPoint x="454.0000000000002" y="611.6533333333334" as="targetPoint" />
            <mxPoint x="311" y="730" as="sourcePoint" />
            <Array as="points">
              <mxPoint x="311" y="680" />
              <mxPoint x="454" y="680" />
            </Array>
          </mxGeometry>
        </mxCell>
        <mxCell id="21" value="SolicitudParaCreditoPersonal" style="swimlane;fontStyle=1;align=center;verticalAlign=top;childLayout=stackLayout;horizontal=1;startSize=45.333333333333336;horizontalStack=0;resizeParent=1;resizeParentMax=0;resizeLast=0;collapsible=0;marginBottom=0;fontSize=16;" parent="1" vertex="1">
          <mxGeometry x="190" y="730" width="294" height="53.333333333333336" as="geometry" />
        </mxCell>
        <mxCell id="23" style="line;strokeWidth=1;fillColor=none;align=left;verticalAlign=middle;spacingTop=-1;spacingLeft=3;spacingRight=3;rotatable=0;labelPosition=right;points=[];portConstraint=eastwest;strokeColor=inherit;" parent="21" vertex="1">
          <mxGeometry y="45.333333333333336" width="294" height="8" as="geometry" />
        </mxCell>
        <mxCell id="25" value="SolicitudParaCreditoHipotecario" style="swimlane;fontStyle=1;align=center;verticalAlign=top;childLayout=stackLayout;horizontal=1;startSize=45.333333333333336;horizontalStack=0;resizeParent=1;resizeParentMax=0;resizeLast=0;collapsible=0;marginBottom=0;fontSize=16;" parent="1" vertex="1">
          <mxGeometry x="530" y="730" width="271" height="53.333333333333336" as="geometry" />
        </mxCell>
        <mxCell id="27" style="line;strokeWidth=1;fillColor=none;align=left;verticalAlign=middle;spacingTop=-1;spacingLeft=3;spacingRight=3;rotatable=0;labelPosition=right;points=[];portConstraint=eastwest;strokeColor=inherit;" parent="25" vertex="1">
          <mxGeometry y="45.333333333333336" width="271" height="8" as="geometry" />
        </mxCell>
        <mxCell id="Wz735K2adg3fwihp1_E6-41" style="edgeStyle=orthogonalEdgeStyle;rounded=0;orthogonalLoop=1;jettySize=auto;html=1;entryX=0.651;entryY=1.004;entryDx=0;entryDy=0;entryPerimeter=0;endArrow=block;endFill=0;endSize=10;" edge="1" parent="1">
          <mxGeometry relative="1" as="geometry">
            <mxPoint x="668" y="730" as="sourcePoint" />
            <mxPoint x="520" y="611.6526533333332" as="targetPoint" />
            <Array as="points">
              <mxPoint x="640" y="730" />
              <mxPoint x="640" y="680" />
              <mxPoint x="520" y="680" />
            </Array>
          </mxGeometry>
        </mxCell>
        <mxCell id="Wz735K2adg3fwihp1_E6-51" value="Extends" style="text;html=1;align=center;verticalAlign=middle;whiteSpace=wrap;rounded=0;labelBackgroundColor=default;" vertex="1" parent="1">
          <mxGeometry x="424" y="650" width="60" height="30" as="geometry" />
        </mxCell>
        <mxCell id="Wz735K2adg3fwihp1_E6-52" value="Extends" style="text;html=1;align=center;verticalAlign=middle;whiteSpace=wrap;rounded=0;labelBackgroundColor=default;" vertex="1" parent="1">
          <mxGeometry x="490" y="650" width="60" height="30" as="geometry" />
        </mxCell>
        <mxCell id="Wz735K2adg3fwihp1_E6-97" value="clientes" style="text;html=1;align=center;verticalAlign=middle;whiteSpace=wrap;rounded=0;labelBackgroundColor=default;" vertex="1" parent="1">
          <mxGeometry x="-60" y="340" width="60" height="30" as="geometry" />
        </mxCell>
        <mxCell id="Wz735K2adg3fwihp1_E6-98" value="*" style="text;html=1;align=center;verticalAlign=middle;whiteSpace=wrap;rounded=0;labelBackgroundColor=none;" vertex="1" parent="1">
          <mxGeometry x="-50" y="380" width="60" height="30" as="geometry" />
        </mxCell>
      </root>
    </mxGraphModel>
  </diagram>
</mxfile>
